<?xml version="1.0" encoding="utf-8"?>
<!-- Generator: Adobe Illustrator 24.2.3, SVG Export Plug-In . SVG Version: 6.00 Build 0)  -->
<svg version="1.1" id="Layer_1" xmlns="http://www.w3.org/2000/svg" xmlns:xlink="http://www.w3.org/1999/xlink" x="0px" y="0px"
	 viewBox="0 0 788 593" style="enable-background:new 0 0 788 593;" xml:space="preserve">
<style type="text/css">
	.st0{fill:#FFFFFF;}
	.st1{fill:#505050;stroke:#000000;stroke-width:1.9774;stroke-miterlimit:10;}
	.st2{stroke:#E6E6E6;stroke-width:0.3955;stroke-miterlimit:10;}
	.st3{fill:none;stroke:#000000;stroke-width:1.9774;stroke-miterlimit:10;}
	.st4{fill:#E6E6E6;stroke:#000000;stroke-width:1.9774;stroke-miterlimit:10;}
	.st5{fill:#555553;stroke:#000000;stroke-width:1.9774;stroke-miterlimit:10;}
</style>
<g>
	<rect class="st0" width="788" height="593"/>
</g>
<g>
	<g>
		<path class="st1" d="M279.75,535.06c-6.2-1.96-60.6-19.13-61.21-19.46c-0.68-0.37-1.05-1.21-1.12-1.83
			c-0.07-0.7-1.2-155.32-1.2-156.76c0-4.81-2.62-317.68-2.67-318.83c-0.07-0.85,1.29-1.21,1.45-1.25
			c0.83-0.15,81.92-14.24,89.77-15.97c9.33-2.04,87.2-19.17,87.83-19.33c0.42-0.11,0.8-0.23,1.66,0
			c0.58,0.14,178.04,35.21,179.14,35.4c0.47,0.08,1.04,0.4,1.04,1.51c0,0.14-0.05,6.33-0.14,15.69
			c-0.29,32.91-0.9,101.38-0.9,106.63c0,3.72-0.88,110.1-1.75,213.27l-0.52-0.01c0.87-103.16,1.75-209.54,1.75-213.26
			c0-5.25,0.61-73.73,0.9-106.64c0.08-9.36,0.14-15.55,0.14-15.68c0-0.79-0.32-0.95-0.6-1c-1.13-0.19-178.64-35.26-179.18-35.41
			c-0.71-0.19-0.99-0.1-1.35-0.01c-0.45,0.13-82.47,18.16-87.9,19.35c-7.86,1.72-88.96,15.82-89.77,15.96
			c-0.32,0.08-1.07,0.38-1.04,0.7c0.05,0.6,2.67,313.51,2.67,318.87c0,1.34,1.13,155.41,1.2,156.72c0.05,0.5,0.36,1.15,0.85,1.43
			c0.8,0.36,40.32,12.86,61.11,19.42L279.75,535.06z"/>
	</g>
	<g>
		<polygon class="st1" points="431.47,559.57 431.31,559.08 500.89,536.99 501.04,537.48 		"/>
	</g>
	<g>
		<g>
			<path class="st2" d="M370.9,42.66c-0.03,1.21,3.88,2.28,8.73,2.38c4.85,0.1,8.81-0.8,8.84-2.01c0.03-1.21-3.88-2.28-8.73-2.38
				C374.89,40.55,370.93,41.45,370.9,42.66z"/>
		</g>
		<g>
			<path class="st2" d="M370.83,49.3c-0.02,1,3.91,1.89,8.78,1.99c4.87,0.1,8.85-0.62,8.87-1.62c0.02-1-3.91-1.89-8.78-1.99
				C374.82,47.58,370.85,48.3,370.83,49.3z"/>
		</g>
		<g>
			<path class="st2" d="M379.52,56.23c4.86,0.1,8.82-0.41,8.84-1.15c0.02-0.74-3.91-1.42-8.77-1.52c-4.86-0.1-8.82,0.41-8.84,1.15
				C370.73,55.45,374.66,56.13,379.52,56.23z"/>
		</g>
		<g>
			<path class="st2" d="M379.39,60.04c4.86,0.1,8.81-0.24,8.83-0.77c0.01-0.53-3.92-1.04-8.78-1.14c-4.86-0.1-8.81,0.24-8.83,0.77
				C370.6,59.42,374.53,59.93,379.39,60.04z"/>
		</g>
		<g>
			<path class="st2" d="M388.22,62.79c0.01-0.42-3.94-0.85-8.83-0.96c-4.89-0.1-8.86,0.16-8.87,0.58c-0.01,0.42,3.94,0.85,8.83,0.96
				C384.24,63.48,388.21,63.22,388.22,62.79z"/>
		</g>
		<g>
			<path class="st2" d="M379.17,66.65c4.91,0.1,8.89-0.18,8.9-0.64c0.01-0.46-3.96-0.91-8.86-1.01c-4.91-0.1-8.89,0.18-8.9,0.64
				C370.3,66.1,374.27,66.55,379.17,66.65z"/>
		</g>
		<g>
			<path class="st2" d="M388.18,69.93c0.02-0.63-4.02-1.22-9.01-1.33c-4.99-0.11-9.06,0.32-9.07,0.94
				c-0.02,0.63,4.02,1.22,9.01,1.33C384.11,70.98,388.17,70.55,388.18,69.93z"/>
		</g>
		<g>
			<path class="st2" d="M370.91,34.96c-0.03,1.32,3.87,2.48,8.73,2.58c4.85,0.1,8.81-0.89,8.85-2.21c0.03-1.32-3.87-2.48-8.73-2.58
				C374.9,32.64,370.94,33.63,370.91,34.96z"/>
		</g>
		<g>
			<path class="st2" d="M370.91,26.4c-0.04,1.41,3.87,2.63,8.72,2.74c4.85,0.1,8.82-0.96,8.85-2.36c0.04-1.41-3.87-2.63-8.72-2.74
				C374.91,23.93,370.94,24.99,370.91,26.4z"/>
		</g>
		<g>
			<path class="st2" d="M371.22,17.78c-0.04,1.44,3.8,2.68,8.57,2.78c4.77,0.1,8.66-0.98,8.7-2.42c0.04-1.44-3.8-2.68-8.57-2.78
				C375.15,15.26,371.25,16.34,371.22,17.78z"/>
		</g>
		<g>
			<path class="st2" d="M365.63,15.77c4.77,0.31,8.72-0.49,8.82-1.8c0.1-1.31-3.68-2.62-8.45-2.93c-4.77-0.31-8.72,0.49-8.82,1.8
				C357.07,14.14,360.86,15.45,365.63,15.77z"/>
		</g>
		<g>
			<path class="st2" d="M356.99,21.16c-0.11,1.42,3.69,2.84,8.49,3.15c4.8,0.32,8.78-0.58,8.89-2.01c0.11-1.42-3.69-2.84-8.49-3.15
				C361.09,18.84,357.1,19.74,356.99,21.16z"/>
		</g>
		<g>
			<path class="st2" d="M351.4,19.1c4.79,0.45,8.79-0.31,8.95-1.69c0.15-1.38-3.61-2.86-8.39-3.3c-4.79-0.45-8.79,0.31-8.95,1.69
				C342.85,17.17,346.61,18.65,351.4,19.1z"/>
		</g>
		<g>
			<path class="st2" d="M342.75,24.61c-0.13,1.4,3.64,2.85,8.44,3.23c4.79,0.39,8.79-0.44,8.92-1.83c0.13-1.4-3.64-2.85-8.44-3.23
				C346.87,22.38,342.88,23.21,342.75,24.61z"/>
		</g>
		<g>
			<path class="st2" d="M337.19,22.37c4.82,0.51,8.88-0.23,9.06-1.66s-3.59-2.99-8.41-3.5c-4.82-0.51-8.88,0.23-9.06,1.66
				C328.6,20.3,332.37,21.86,337.19,22.37z"/>
		</g>
		<g>
			<path class="st2" d="M328.4,27.75c-0.16,1.43,3.63,2.95,8.46,3.4c4.83,0.45,8.87-0.34,9.03-1.77c0.16-1.43-3.63-2.95-8.46-3.4
				C332.6,25.53,328.56,26.32,328.4,27.75z"/>
		</g>
		<g>
			<path class="st2" d="M322.77,25.42c4.81,0.59,8.88-0.1,9.1-1.54c0.21-1.45-3.52-3.1-8.33-3.7c-4.81-0.59-8.88,0.1-9.1,1.54
				C314.23,23.17,317.96,24.82,322.77,25.42z"/>
		</g>
		<g>
			<path class="st2" d="M308.38,28.28c4.83,0.6,8.92-0.09,9.13-1.53c0.21-1.44-3.53-3.09-8.36-3.69c-4.83-0.6-8.91,0.09-9.13,1.53
				S303.55,27.69,308.38,28.28z"/>
		</g>
		<g>
			
				<ellipse transform="matrix(0.1033 -0.9947 0.9947 0.1033 235.6735 318.2057)" class="st2" cx="294.32" cy="28.39" rx="2.48" ry="8.81"/>
		</g>
		<g>
			<path class="st2" d="M279.52,33.34c4.88,0.51,8.96-0.09,9.12-1.36c0.16-1.26-3.67-2.71-8.54-3.22c-4.88-0.51-8.96,0.09-9.12,1.36
				C270.82,31.39,274.64,32.83,279.52,33.34z"/>
		</g>
		<g>
			<path class="st2" d="M265.11,35.69c4.89,0.44,8.95-0.14,9.07-1.31c0.12-1.16-3.74-2.46-8.62-2.9c-4.89-0.44-8.95,0.14-9.07,1.31
				C256.36,33.95,260.22,35.25,265.11,35.69z"/>
		</g>
		<g>
			<path class="st2" d="M255.71,39.44c-0.1,0.98,3.8,2.13,8.71,2.57c4.92,0.44,8.98,0.01,9.09-0.97c0.1-0.98-3.8-2.13-8.71-2.57
				C259.88,38.02,255.81,38.46,255.71,39.44z"/>
		</g>
		<g>
			<path class="st2" d="M250.46,38.06c4.93,0.31,8.99-0.33,9.07-1.43c0.08-1.1-3.85-2.25-8.77-2.56c-4.93-0.31-8.99,0.33-9.07,1.43
				C241.6,36.6,245.53,37.74,250.46,38.06z"/>
		</g>
		<g>
			<path class="st2" d="M258.78,42.56c0.06-0.76-3.88-1.62-8.79-1.93c-4.91-0.31-8.94,0.05-9,0.81c-0.06,0.76,3.88,1.63,8.79,1.93
				C254.7,43.68,258.73,43.32,258.78,42.56z"/>
		</g>
		<g>
			<path class="st2" d="M244.72,38.79c0.04-0.92-3.91-1.82-8.84-2.01c-4.92-0.18-8.94,0.42-8.98,1.34
				c-0.04,0.92,3.91,1.82,8.84,2.01C240.66,40.31,244.68,39.71,244.72,38.79z"/>
		</g>
		<g>
			<path class="st2" d="M272.82,46.24c0.08-0.7-3.83-1.63-8.73-2.07c-4.9-0.44-8.93-0.23-9,0.48c-0.08,0.7,3.83,1.63,8.73,2.07
				C268.71,47.16,272.74,46.94,272.82,46.24z"/>
		</g>
		<g>
			<path class="st2" d="M270.37,37.47c-0.13,1.06,3.75,2.34,8.67,2.86c4.92,0.52,9.02,0.08,9.16-0.98c0.13-1.06-3.75-2.34-8.67-2.86
				S270.5,36.41,270.37,37.47z"/>
		</g>
		<g>
			<path class="st2" d="M278.45,45.86c4.91,0.52,8.98,0.29,9.08-0.51c0.1-0.8-3.8-1.87-8.71-2.39c-4.91-0.52-8.98-0.29-9.08,0.51
				C269.63,44.28,273.54,45.35,278.45,45.86z"/>
		</g>
		<g>
			<path class="st2" d="M287.01,49.86c0.07-0.55-3.86-1.41-8.77-1.93c-4.91-0.52-8.95-0.49-9.02,0.05
				c-0.07,0.55,3.86,1.41,8.77,1.93C282.91,50.43,286.94,50.41,287.01,49.86z"/>
		</g>
		<g>
			<path class="st2" d="M285.01,35.43c-0.15,1.17,3.66,2.53,8.5,3.04c4.84,0.51,8.88-0.02,9.03-1.19c0.15-1.17-3.66-2.53-8.5-3.04
				C289.2,33.73,285.16,34.26,285.01,35.43z"/>
		</g>
		<g>
			<path class="st2" d="M284.6,42.12c-0.12,0.94,3.71,2.11,8.55,2.62c4.84,0.51,8.86,0.17,8.98-0.77c0.12-0.94-3.71-2.11-8.55-2.62
				C288.74,40.84,284.72,41.18,284.6,42.12z"/>
		</g>
		<g>
			<path class="st2" d="M292.59,49.58c4.84,0.51,8.84,0.35,8.93-0.35c0.09-0.71-3.76-1.69-8.6-2.2c-4.84-0.51-8.84-0.35-8.93,0.35
				C283.9,48.08,287.75,49.07,292.59,49.58z"/>
		</g>
		<g>
			<path class="st2" d="M301.06,53.22c0.06-0.49-3.81-1.31-8.65-1.82c-4.84-0.51-8.81-0.52-8.88-0.03
				c-0.06,0.49,3.81,1.31,8.65,1.82S301,53.71,301.06,53.22z"/>
		</g>
		<g>
			<path class="st2" d="M299.59,33.12c-0.15,1.24,3.64,2.65,8.48,3.16c4.84,0.51,8.89-0.08,9.04-1.31c0.15-1.24-3.64-2.65-8.48-3.16
				S299.75,31.89,299.59,33.12z"/>
		</g>
		<g>
			<path class="st2" d="M299.21,40.33c-0.13,1.06,3.68,2.33,8.52,2.85c4.84,0.51,8.87,0.06,9.01-1c0.13-1.06-3.68-2.33-8.52-2.85
				C303.37,38.82,299.34,39.27,299.21,40.33z"/>
		</g>
		<g>
			<path class="st2" d="M307.29,48.76c4.84,0.51,8.85,0.27,8.95-0.53c0.1-0.8-3.74-1.87-8.58-2.38c-4.84-0.51-8.85-0.27-8.95,0.53
				S302.45,48.25,307.29,48.76z"/>
		</g>
		<g>
			<path class="st2" d="M306.89,53.01c4.84,0.51,8.83,0.44,8.9-0.17c0.08-0.6-3.79-1.5-8.63-2.02c-4.84-0.51-8.83-0.44-8.9,0.17
				C298.19,51.6,302.05,52.5,306.89,53.01z"/>
		</g>
		<g>
			<path class="st2" d="M315.14,56.42c0.05-0.41-3.83-1.16-8.67-1.67c-4.84-0.51-8.81-0.59-8.86-0.18
				c-0.05,0.41,3.83,1.16,8.67,1.67C311.12,56.76,315.09,56.84,315.14,56.42z"/>
		</g>
		<g>
			<path class="st2" d="M313.99,30.52c-0.17,1.33,3.64,2.83,8.51,3.34s8.94-0.15,9.11-1.49c0.17-1.33-3.64-2.83-8.51-3.34
				C318.23,28.52,314.16,29.19,313.99,30.52z"/>
		</g>
		<g>
			<path class="st2" d="M313.62,38.32c-0.14,1.14,3.68,2.48,8.55,3c4.86,0.51,8.92,0,9.07-1.14c0.14-1.14-3.68-2.48-8.55-3
				C317.82,36.67,313.76,37.18,313.62,38.32z"/>
		</g>
		<g>
			<path class="st2" d="M313.29,44.93c-0.12,0.95,3.73,2.14,8.59,2.65c4.86,0.51,8.91,0.16,9.02-0.79s-3.73-2.14-8.59-2.65
				C317.45,43.63,313.41,43.98,313.29,44.93z"/>
		</g>
		<g>
			<path class="st2" d="M321.64,52.5c4.87,0.45,8.88,0.25,8.96-0.45s-3.81-1.64-8.68-2.1c-4.87-0.45-8.88-0.25-8.96,0.45
				C312.88,51.11,316.77,52.05,321.64,52.5z"/>
		</g>
		<g>
			<path class="st2" d="M321.26,56.37c4.87,0.45,8.88,0.34,8.94-0.26c0.07-0.6-3.83-1.45-8.7-1.9c-4.87-0.45-8.88-0.34-8.94,0.26
				C312.49,55.06,316.39,55.92,321.26,56.37z"/>
		</g>
		<g>
			<path class="st2" d="M329.73,59.54c0.05-0.4-3.85-1.14-8.72-1.65c-4.86-0.51-8.85-0.61-8.9-0.2c-0.05,0.4,3.85,1.14,8.72,1.65
				C325.7,59.85,329.68,59.94,329.73,59.54z"/>
		</g>
		<g>
			<path class="st2" d="M328.07,35.91c-0.14,1.25,3.67,2.63,8.5,3.08c4.83,0.45,8.86-0.2,9-1.45c0.14-1.25-3.67-2.63-8.5-3.08
				C332.24,34.02,328.21,34.66,328.07,35.91z"/>
		</g>
		<g>
			<path class="st2" d="M327.88,43.19c-0.12,1.05,3.71,2.26,8.54,2.71c4.83,0.45,8.84-0.04,8.96-1.09c0.12-1.05-3.71-2.26-8.54-2.71
				C332.01,41.65,328,42.14,327.88,43.19z"/>
		</g>
		<g>
			<path class="st2" d="M336.14,51.49c4.83,0.45,8.82,0.15,8.91-0.68c0.09-0.82-3.75-1.86-8.58-2.31c-4.83-0.45-8.82-0.15-8.91,0.68
				C327.47,50.01,331.31,51.04,336.14,51.49z"/>
		</g>
		<g>
			<path class="st2" d="M335.9,55.88c4.87,0.45,8.88,0.3,8.95-0.34c0.07-0.64-3.82-1.53-8.69-1.98c-4.87-0.45-8.88-0.3-8.95,0.34
				C327.14,54.53,331.03,55.42,335.9,55.88z"/>
		</g>
		<g>
			<path class="st2" d="M335.59,59.26c4.88,0.45,8.87,0.47,8.92,0.03c0.05-0.44-3.87-1.17-8.75-1.62c-4.88-0.45-8.87-0.47-8.92-0.03
				S330.71,58.81,335.59,59.26z"/>
		</g>
		<g>
			<path class="st2" d="M344.11,62.37c0.05-0.42-3.87-1.12-8.75-1.58c-4.88-0.45-8.87-0.48-8.92-0.07
				c-0.05,0.42,3.87,1.12,8.75,1.58C340.07,62.75,344.06,62.78,344.11,62.37z"/>
		</g>
		<g>
			<path class="st2" d="M342.56,33.12c-0.13,1.34,3.65,2.74,8.45,3.13s8.78-0.39,8.91-1.73c0.13-1.34-3.65-2.74-8.45-3.13
				C346.68,31,342.69,31.78,342.56,33.12z"/>
		</g>
		<g>
			<path class="st2" d="M342.37,41c-0.09,1.2,3.72,2.43,8.52,2.74c4.8,0.32,8.77-0.4,8.86-1.6c0.09-1.2-3.72-2.43-8.52-2.74
				C346.43,39.09,342.47,39.81,342.37,41z"/>
		</g>
		<g>
			<path class="st2" d="M342.06,47.67c-0.08,0.97,3.8,2.02,8.66,2.34c4.86,0.32,8.86-0.21,8.93-1.19c0.08-0.97-3.8-2.02-8.66-2.34
				C346.14,46.17,342.14,46.7,342.06,47.67z"/>
		</g>
		<g>
			<path class="st2" d="M350.5,54.86c4.86,0.32,8.84-0.02,8.9-0.76c0.06-0.74-3.83-1.6-8.69-1.92c-4.86-0.32-8.84,0.02-8.9,0.76
				C341.76,53.68,345.65,54.54,350.5,54.86z"/>
		</g>
		<g>
			<path class="st2" d="M350.19,58.81c4.86,0.32,8.83,0.14,8.87-0.41c0.04-0.55-3.86-1.25-8.71-1.56s-8.83-0.14-8.87,0.41
				C341.44,57.79,345.34,58.49,350.19,58.81z"/>
		</g>
		<g>
			<path class="st2" d="M349.92,61.97c4.81,0.39,8.74,0.35,8.78-0.08s-3.82-1.09-8.63-1.48c-4.81-0.39-8.74-0.35-8.78,0.08
				S345.11,61.58,349.92,61.97z"/>
		</g>
		<g>
			<path class="st2" d="M358.53,65.11c0.04-0.44-3.84-1.11-8.67-1.5c-4.83-0.39-8.78-0.35-8.82,0.09c-0.04,0.44,3.84,1.11,8.67,1.5
				C354.54,65.58,358.49,65.54,358.53,65.11z"/>
		</g>
		<g>
			
				<ellipse transform="matrix(0.0473 -0.9989 0.9989 0.0473 317.8639 394.1852)" class="st2" cx="365.58" cy="30.45" rx="2.46" ry="8.71"/>
		</g>
		<g>
			<path class="st2" d="M356.72,38.19c-0.07,1.23,3.77,2.42,8.57,2.65c4.8,0.23,8.76-0.58,8.83-1.81c0.07-1.23-3.77-2.42-8.57-2.65
				C360.74,36.15,356.79,36.96,356.72,38.19z"/>
		</g>
		<g>
			<path class="st2" d="M356.58,45.39c-0.06,1.07,3.8,2.12,8.63,2.35c4.83,0.23,8.79-0.44,8.85-1.51c0.06-1.07-3.8-2.12-8.63-2.35
				C360.6,43.65,356.64,44.33,356.58,45.39z"/>
		</g>
		<g>
			<path class="st2" d="M365.01,53.33c4.83,0.23,8.78-0.27,8.83-1.12c0.05-0.85-3.82-1.72-8.65-1.96c-4.83-0.23-8.78,0.27-8.83,1.12
				C356.31,52.22,360.19,53.1,365.01,53.33z"/>
		</g>
		<g>
			<path class="st2" d="M364.95,57.76c4.86,0.23,8.82-0.09,8.86-0.73c0.04-0.64-3.87-1.34-8.73-1.57c-4.86-0.23-8.82,0.09-8.86,0.73
				C356.19,56.83,360.09,57.53,364.95,57.76z"/>
		</g>
		<g>
			<path class="st2" d="M364.71,61.32c4.86,0.23,8.82,0.02,8.84-0.47c0.03-0.49-3.89-1.08-8.74-1.32c-4.86-0.23-8.82-0.02-8.84,0.47
				C355.94,60.5,359.85,61.09,364.71,61.32z"/>
		</g>
		<g>
			<path class="st2" d="M364.64,64.37c4.9,0.24,8.88,0.08,8.91-0.34c0.02-0.42-3.92-0.96-8.82-1.19c-4.9-0.24-8.88-0.08-8.91,0.34
				C355.8,63.6,359.75,64.14,364.64,64.37z"/>
		</g>
		<g>
			<path class="st2" d="M373.45,67.44c0.03-0.53-3.95-1.16-8.89-1.39c-4.94-0.24-8.97,0-9,0.53s3.95,1.16,8.89,1.39
				C369.39,68.21,373.42,67.97,373.45,67.44z"/>
		</g>
		<g>
			<path class="st2" d="M379.8,12.39c4.76,0.1,8.65-0.85,8.68-2.13s-3.8-2.39-8.57-2.49c-4.76-0.1-8.65,0.85-8.68,2.13
				C371.2,11.17,375.03,12.29,379.8,12.39z"/>
		</g>
		<g>
			<path class="st2" d="M408.08,40.65c-4.85,0.1-8.76,1.17-8.73,2.38c0.03,1.21,3.99,2.11,8.84,2.01c4.85-0.1,8.76-1.17,8.73-2.38
				S412.93,40.55,408.08,40.65z"/>
		</g>
		<g>
			<path class="st2" d="M408.22,51.29c4.87-0.1,8.81-0.99,8.78-1.99c-0.02-1-4-1.72-8.87-1.62c-4.87,0.1-8.81,0.99-8.78,1.99
				C399.37,50.67,403.34,51.39,408.22,51.29z"/>
		</g>
		<g>
			<path class="st2" d="M408.3,56.23c4.86-0.1,8.79-0.78,8.77-1.52c-0.02-0.74-3.97-1.25-8.84-1.15c-4.86,0.1-8.79,0.78-8.77,1.52
				C399.49,55.82,403.44,56.34,408.3,56.23z"/>
		</g>
		<g>
			<path class="st2" d="M408.43,60.04c4.86-0.1,8.79-0.61,8.78-1.14c-0.01-0.53-3.96-0.87-8.83-0.77c-4.86,0.1-8.79,0.61-8.78,1.14
				C399.62,59.79,403.57,60.14,408.43,60.04z"/>
		</g>
		<g>
			<path class="st2" d="M408.47,63.37c4.89-0.1,8.84-0.53,8.83-0.96c-0.01-0.42-3.98-0.68-8.87-0.58c-4.89,0.1-8.84,0.53-8.83,0.96
				C399.61,63.22,403.58,63.48,408.47,63.37z"/>
		</g>
		<g>
			<path class="st2" d="M408.65,66.65c4.91-0.1,8.87-0.56,8.86-1.01c-0.01-0.46-4-0.74-8.9-0.64c-4.91,0.1-8.87,0.56-8.86,1.01
				C399.76,66.47,403.74,66.76,408.65,66.65z"/>
		</g>
		<g>
			<path class="st2" d="M408.65,68.6c-4.99,0.11-9.03,0.7-9.01,1.33c0.02,0.63,4.08,1.05,9.07,0.94c4.99-0.11,9.03-0.7,9.01-1.33
				C417.71,68.92,413.65,68.5,408.65,68.6z"/>
		</g>
		<g>
			<path class="st2" d="M408.07,32.75c-4.85,0.1-8.76,1.26-8.73,2.58c0.03,1.32,3.99,2.31,8.85,2.21c4.85-0.1,8.76-1.26,8.73-2.58
				C416.88,33.63,412.92,32.64,408.07,32.75z"/>
		</g>
		<g>
			<path class="st2" d="M408.06,24.04c-4.85,0.1-8.76,1.33-8.72,2.74c0.04,1.41,4,2.47,8.85,2.36c4.85-0.1,8.76-1.33,8.72-2.74
				C416.88,24.99,412.91,23.93,408.06,24.04z"/>
		</g>
		<g>
			<path class="st2" d="M407.91,15.36c-4.77,0.1-8.61,1.35-8.57,2.78c0.04,1.44,3.93,2.52,8.7,2.42c4.77-0.1,8.61-1.35,8.57-2.78
				C416.57,16.34,412.67,15.26,407.91,15.36z"/>
		</g>
		<g>
			<path class="st2" d="M413.37,13.97c0.1,1.31,4.05,2.11,8.82,1.8c4.77-0.31,8.56-1.63,8.45-2.93c-0.1-1.31-4.05-2.11-8.82-1.8
				C417.06,11.35,413.27,12.66,413.37,13.97z"/>
		</g>
		<g>
			<path class="st2" d="M421.94,19.15c-4.8,0.32-8.6,1.73-8.49,3.15c0.11,1.42,4.09,2.32,8.89,2.01c4.8-0.32,8.6-1.73,8.49-3.15
				C430.72,19.74,426.74,18.84,421.94,19.15z"/>
		</g>
		<g>
			<path class="st2" d="M427.48,17.41c0.15,1.38,4.16,2.14,8.95,1.69c4.79-0.45,8.55-1.93,8.39-3.3c-0.15-1.38-4.16-2.14-8.95-1.69
				C431.08,14.55,427.32,16.03,427.48,17.41z"/>
		</g>
		<g>
			<path class="st2" d="M436.15,22.77c-4.79,0.39-8.57,1.83-8.44,3.23c0.13,1.4,4.13,2.22,8.92,1.83c4.79-0.39,8.57-1.83,8.44-3.23
				C444.94,23.21,440.95,22.38,436.15,22.77z"/>
		</g>
		<g>
			<path class="st2" d="M441.57,20.71c0.18,1.42,4.23,2.17,9.06,1.66c4.82-0.51,8.59-2.08,8.41-3.5c-0.18-1.42-4.23-2.17-9.06-1.66
				C445.16,17.72,441.39,19.29,441.57,20.71z"/>
		</g>
		<g>
			<path class="st2" d="M450.39,25.98c-4.83,0.45-8.62,1.97-8.46,3.4c0.16,1.43,4.2,2.22,9.03,1.77c4.83-0.45,8.62-1.97,8.46-3.4
				C459.26,26.32,455.22,25.53,450.39,25.98z"/>
		</g>
		<g>
			<path class="st2" d="M455.96,23.88c0.21,1.45,4.28,2.14,9.1,1.54c4.81-0.59,8.54-2.25,8.33-3.7c-0.21-1.45-4.28-2.14-9.1-1.54
				C459.47,20.78,455.74,22.43,455.96,23.88z"/>
		</g>
		<g>
			<path class="st2" d="M470.32,26.75c0.21,1.44,4.3,2.13,9.13,1.53c4.83-0.6,8.57-2.25,8.36-3.69s-4.3-2.13-9.13-1.53
				C473.85,23.66,470.11,25.31,470.32,26.75z"/>
		</g>
		<g>
			<path class="st2" d="M484.74,29.32c0.17,1.36,4.23,2.05,9.07,1.54c4.84-0.51,8.63-2.03,8.46-3.39c-0.17-1.36-4.23-2.05-9.07-1.54
				C488.36,26.44,484.57,27.96,484.74,29.32z"/>
		</g>
		<g>
			<path class="st2" d="M499.19,31.99c0.16,1.26,4.24,1.87,9.12,1.36c4.88-0.51,8.7-1.96,8.54-3.22c-0.16-1.26-4.24-1.87-9.12-1.36
				C502.85,29.28,499.03,30.72,499.19,31.99z"/>
		</g>
		<g>
			<path class="st2" d="M513.64,34.39c0.12,1.16,4.18,1.75,9.07,1.31c4.89-0.44,8.75-1.74,8.62-2.9c-0.12-1.16-4.18-1.75-9.07-1.31
				S513.52,33.23,513.64,34.39z"/>
		</g>
		<g>
			<path class="st2" d="M523.4,42.01c4.92-0.44,8.82-1.59,8.71-2.57c-0.1-0.98-4.17-1.41-9.09-0.97c-4.92,0.44-8.82,1.59-8.71,2.57
				C514.42,42.02,518.49,42.45,523.4,42.01z"/>
		</g>
		<g>
			<path class="st2" d="M528.29,36.62c0.08,1.1,4.14,1.74,9.07,1.43c4.93-0.31,8.85-1.46,8.77-2.56c-0.08-1.1-4.14-1.74-9.07-1.43
				S528.21,35.52,528.29,36.62z"/>
		</g>
		<g>
			<path class="st2" d="M537.83,40.62c-4.91,0.31-8.85,1.18-8.79,1.93c0.06,0.76,4.09,1.12,9,0.81c4.91-0.31,8.85-1.18,8.79-1.93
				S542.75,40.32,537.83,40.62z"/>
		</g>
		<g>
			<path class="st2" d="M551.94,36.78c-4.92,0.18-8.88,1.08-8.84,2.01c0.04,0.92,4.06,1.52,8.98,1.34c4.92-0.18,8.88-1.08,8.84-2.01
				C560.88,37.2,556.86,36.6,551.94,36.78z"/>
		</g>
		<g>
			<path class="st2" d="M523.73,44.17c-4.9,0.44-8.8,1.37-8.73,2.07c0.08,0.7,4.11,0.92,9,0.48c4.9-0.44,8.8-1.37,8.73-2.07
				C532.66,43.94,528.63,43.73,523.73,44.17z"/>
		</g>
		<g>
			<path class="st2" d="M508.78,40.33c4.92-0.52,8.81-1.8,8.67-2.86s-4.23-1.5-9.16-0.98s-8.81,1.8-8.67,2.86
				C499.75,40.41,503.85,40.85,508.78,40.33z"/>
		</g>
		<g>
			<path class="st2" d="M509.37,45.86c4.91-0.52,8.81-1.59,8.71-2.39c-0.1-0.8-4.16-1.03-9.08-0.51c-4.91,0.52-8.81,1.59-8.71,2.39
				C500.4,46.15,504.46,46.38,509.37,45.86z"/>
		</g>
		<g>
			<path class="st2" d="M509.58,47.93c-4.91,0.52-8.84,1.38-8.77,1.93c0.07,0.55,4.11,0.57,9.02,0.05c4.91-0.52,8.84-1.38,8.77-1.93
				C518.53,47.44,514.49,47.41,509.58,47.93z"/>
		</g>
		<g>
			<path class="st2" d="M493.78,34.24c-4.84,0.51-8.65,1.87-8.5,3.04c0.15,1.17,4.19,1.7,9.03,1.19c4.84-0.51,8.65-1.87,8.5-3.04
				S498.62,33.73,493.78,34.24z"/>
		</g>
		<g>
			<path class="st2" d="M494.67,44.74c4.84-0.51,8.67-1.68,8.55-2.62c-0.12-0.94-4.14-1.28-8.98-0.77
				c-4.84,0.51-8.67,1.68-8.55,2.62C485.81,44.9,489.83,45.25,494.67,44.74z"/>
		</g>
		<g>
			<path class="st2" d="M495.23,49.58c4.84-0.51,8.69-1.5,8.6-2.2c-0.09-0.71-4.08-0.87-8.92-0.35c-4.84,0.51-8.69,1.5-8.6,2.2
				C486.39,49.93,490.39,50.09,495.23,49.58z"/>
		</g>
		<g>
			<path class="st2" d="M495.41,51.4c-4.84,0.51-8.71,1.33-8.65,1.82s4.04,0.48,8.88-0.03s8.71-1.33,8.65-1.82
				C504.23,50.87,500.25,50.89,495.41,51.4z"/>
		</g>
		<g>
			<path class="st2" d="M479.18,31.81c-4.84,0.51-8.64,1.93-8.48,3.16c0.15,1.24,4.2,1.83,9.05,1.31c4.84-0.51,8.64-1.93,8.48-3.16
				C488.07,31.89,484.02,31.3,479.18,31.81z"/>
		</g>
		<g>
			<path class="st2" d="M480.09,43.18c4.84-0.51,8.66-1.78,8.52-2.85s-4.16-1.51-9.01-1c-4.84,0.51-8.66,1.78-8.52,2.85
				C471.22,43.24,475.25,43.69,480.09,43.18z"/>
		</g>
		<g>
			<path class="st2" d="M480.53,48.76c4.84-0.51,8.68-1.58,8.58-2.38s-4.11-1.04-8.95-0.53c-4.84,0.51-8.68,1.58-8.58,2.38
				S475.69,49.27,480.53,48.76z"/>
		</g>
		<g>
			<path class="st2" d="M489.56,51c-0.08-0.6-4.06-0.68-8.9-0.17c-4.84,0.51-8.7,1.41-8.63,2.02c0.08,0.6,4.06,0.68,8.9,0.17
				C485.77,52.5,489.63,51.6,489.56,51z"/>
		</g>
		<g>
			<path class="st2" d="M481.35,54.75c-4.84,0.51-8.72,1.26-8.67,1.67c0.05,0.41,4.02,0.33,8.86-0.18c4.84-0.51,8.72-1.26,8.67-1.67
				C490.16,54.16,486.19,54.24,481.35,54.75z"/>
		</g>
		<g>
			<path class="st2" d="M464.72,29.04c-4.86,0.51-8.67,2.01-8.51,3.34c0.17,1.33,4.25,2,9.11,1.49s8.67-2.01,8.51-3.34
				C473.67,29.19,469.59,28.52,464.72,29.04z"/>
		</g>
		<g>
			<path class="st2" d="M465.14,37.18c-4.86,0.51-8.69,1.86-8.55,3c0.14,1.14,4.2,1.65,9.07,1.14c4.86-0.51,8.69-1.86,8.55-3
				C474.06,37.18,470,36.67,465.14,37.18z"/>
		</g>
		<g>
			<path class="st2" d="M465.94,47.58c4.86-0.51,8.71-1.7,8.59-2.65c-0.12-0.95-4.16-1.3-9.02-0.79c-4.86,0.51-8.71,1.7-8.59,2.65
				S461.07,48.1,465.94,47.58z"/>
		</g>
		<g>
			<path class="st2" d="M466.18,52.5c4.87-0.45,8.76-1.39,8.68-2.1c-0.08-0.7-4.09-0.91-8.96-0.45c-4.87,0.45-8.76,1.39-8.68,2.1
				C457.29,52.75,461.31,52.95,466.18,52.5z"/>
		</g>
		<g>
			<path class="st2" d="M466.56,56.37c4.87-0.45,8.77-1.31,8.7-1.9c-0.07-0.6-4.07-0.72-8.94-0.26c-4.87,0.45-8.77,1.31-8.7,1.9
				C457.69,56.71,461.69,56.82,466.56,56.37z"/>
		</g>
		<g>
			<path class="st2" d="M466.81,57.89c-4.86,0.51-8.77,1.25-8.72,1.65c0.05,0.4,4.03,0.31,8.9-0.2s8.77-1.25,8.72-1.65
				C475.65,57.28,471.67,57.37,466.81,57.89z"/>
		</g>
		<g>
			<path class="st2" d="M450.75,34.47c-4.83,0.45-8.63,1.83-8.5,3.08c0.14,1.25,4.17,1.9,9,1.45c4.83-0.45,8.63-1.83,8.5-3.08
				C459.61,34.66,455.58,34.02,450.75,34.47z"/>
		</g>
		<g>
			<path class="st2" d="M451.4,45.9c4.83-0.45,8.65-1.67,8.54-2.71c-0.12-1.05-4.13-1.54-8.96-1.09c-4.83,0.45-8.65,1.67-8.54,2.71
				C442.56,45.87,446.57,46.35,451.4,45.9z"/>
		</g>
		<g>
			<path class="st2" d="M451.68,51.49c4.83-0.45,8.67-1.48,8.58-2.31c-0.09-0.82-4.08-1.13-8.91-0.68
				c-4.83,0.45-8.67,1.48-8.58,2.31C442.86,51.63,446.85,51.94,451.68,51.49z"/>
		</g>
		<g>
			<path class="st2" d="M451.92,55.88c4.87-0.45,8.76-1.34,8.69-1.98c-0.07-0.64-4.08-0.79-8.95-0.34
				c-4.87,0.45-8.76,1.34-8.69,1.98C443.04,56.18,447.05,56.33,451.92,55.88z"/>
		</g>
		<g>
			<path class="st2" d="M460.98,57.64c-0.05-0.44-4.04-0.43-8.92,0.03s-8.79,1.18-8.75,1.62c0.05,0.44,4.04,0.43,8.92-0.03
				C457.11,58.81,461.03,58.08,460.98,57.64z"/>
		</g>
		<g>
			<path class="st2" d="M452.46,60.79c-4.88,0.45-8.8,1.16-8.75,1.58c0.05,0.42,4.04,0.39,8.92-0.07c4.88-0.45,8.8-1.16,8.75-1.58
				C461.33,60.3,457.34,60.34,452.46,60.79z"/>
		</g>
		<g>
			<path class="st2" d="M436.35,31.39c-4.79,0.39-8.58,1.79-8.45,3.13c0.13,1.34,4.12,2.11,8.91,1.73c4.79-0.39,8.58-1.79,8.45-3.13
				C445.14,31.78,441.15,31,436.35,31.39z"/>
		</g>
		<g>
			<path class="st2" d="M436.59,39.41c-4.8,0.32-8.62,1.54-8.52,2.74c0.09,1.2,4.06,1.91,8.86,1.6c4.8-0.32,8.62-1.54,8.52-2.74
				C445.35,39.81,441.39,39.09,436.59,39.41z"/>
		</g>
		<g>
			<path class="st2" d="M437.1,50.01c4.86-0.32,8.73-1.37,8.66-2.34c-0.08-0.97-4.07-1.5-8.93-1.19c-4.86,0.32-8.73,1.37-8.66,2.34
				C428.25,49.8,432.25,50.33,437.1,50.01z"/>
		</g>
		<g>
			<path class="st2" d="M437.32,54.86c4.86-0.32,8.75-1.18,8.69-1.91c-0.06-0.74-4.04-1.08-8.9-0.76c-4.86,0.32-8.75,1.18-8.69,1.92
				C428.48,54.84,432.46,55.18,437.32,54.86z"/>
		</g>
		<g>
			<path class="st2" d="M437.63,58.81c4.86-0.32,8.76-1.02,8.71-1.56c-0.04-0.55-4.01-0.73-8.87-0.41
				c-4.86,0.32-8.76,1.02-8.71,1.56C428.8,58.94,432.77,59.13,437.63,58.81z"/>
		</g>
		<g>
			<path class="st2" d="M446.54,60.49c-0.04-0.43-3.97-0.47-8.78-0.08c-4.81,0.39-8.67,1.05-8.63,1.48s3.97,0.47,8.78,0.08
				C442.71,61.58,446.58,60.92,446.54,60.49z"/>
		</g>
		<g>
			<path class="st2" d="M437.96,63.61c-4.83,0.39-8.71,1.06-8.67,1.5c0.04,0.44,3.99,0.48,8.82,0.09c4.83-0.39,8.71-1.06,8.67-1.5
				C446.74,63.26,442.79,63.22,437.96,63.61z"/>
		</g>
		<g>
			<path class="st2" d="M422.1,28c-4.81,0.23-8.64,1.52-8.56,2.87c0.08,1.35,4.04,2.26,8.84,2.03c4.81-0.23,8.64-1.52,8.56-2.87
				C430.86,28.68,426.91,27.77,422.1,28z"/>
		</g>
		<g>
			<path class="st2" d="M422.28,36.38c-4.8,0.23-8.64,1.42-8.57,2.65s4.02,2.04,8.83,1.81c4.8-0.23,8.64-1.42,8.57-2.65
				C431.03,36.96,427.08,36.15,422.28,36.38z"/>
		</g>
		<g>
			<path class="st2" d="M422.61,47.74c4.83-0.23,8.69-1.29,8.63-2.35c-0.06-1.07-4.02-1.74-8.85-1.51
				c-4.83,0.23-8.69,1.29-8.63,2.35C413.83,47.3,417.79,47.98,422.61,47.74z"/>
		</g>
		<g>
			<path class="st2" d="M422.81,53.33c4.83-0.23,8.7-1.11,8.65-1.96c-0.05-0.85-4-1.35-8.83-1.12c-4.83,0.23-8.7,1.11-8.65,1.96
				C414.03,53.07,417.98,53.56,422.81,53.33z"/>
		</g>
		<g>
			<path class="st2" d="M422.87,57.76c4.86-0.23,8.76-0.94,8.73-1.57c-0.04-0.64-4-0.96-8.86-0.73c-4.86,0.23-8.76,0.94-8.73,1.57
				C414.05,57.67,418.02,58,422.87,57.76z"/>
		</g>
		<g>
			<ellipse transform="matrix(0.9988 -0.048 0.048 0.9988 -2.4125 20.373)" class="st2" cx="423.06" cy="60.43" rx="8.8" ry="0.9"/>
		</g>
		<g>
			<path class="st2" d="M423.18,64.37c4.9-0.24,8.85-0.77,8.82-1.19c-0.02-0.42-4.01-0.58-8.91-0.34c-4.9,0.24-8.85,0.77-8.82,1.19
				C414.29,64.46,418.28,64.61,423.18,64.37z"/>
		</g>
		<g>
			<path class="st2" d="M423.26,66.05c-4.94,0.24-8.92,0.86-8.89,1.39c0.03,0.53,4.06,0.77,9,0.53c4.94-0.24,8.92-0.86,8.89-1.39
				S428.2,65.81,423.26,66.05z"/>
		</g>
		<g>
			<path class="st2" d="M399.34,10.26c0.03,1.27,3.92,2.23,8.68,2.13c4.76-0.1,8.6-1.22,8.57-2.49c-0.03-1.27-3.92-2.23-8.68-2.13
				C403.15,7.87,399.31,8.99,399.34,10.26z"/>
		</g>
		<g>
			<path class="st2" d="M393.98,19.94c-4.84,0-8.76,1.13-8.76,2.53c0,1.4,3.92,2.53,8.76,2.53c4.84,0,8.76-1.13,8.76-2.53
				C402.74,21.07,398.82,19.94,393.98,19.94z"/>
		</g>
		<g>
			<path class="st2" d="M393.98,28.61c-4.84,0-8.76,1.13-8.76,2.53c0,1.4,3.92,2.53,8.76,2.53c4.84,0,8.76-1.13,8.76-2.53
				C402.74,29.74,398.82,28.61,393.98,28.61z"/>
		</g>
		<g>
			<path class="st2" d="M393.98,37.01c-4.84,0-8.76,1.01-8.76,2.26c0,1.25,3.92,2.26,8.76,2.26c4.84,0,8.76-1.01,8.76-2.26
				C402.74,38.02,398.82,37.01,393.98,37.01z"/>
		</g>
		<g>
			<path class="st2" d="M402.74,46.49c0-1.08-3.92-1.95-8.76-1.95c-4.84,0-8.76,0.87-8.76,1.95c0,1.08,3.92,1.95,8.76,1.95
				C398.82,48.44,402.74,47.57,402.74,46.49z"/>
		</g>
		<g>
			<path class="st2" d="M393.98,54.01c4.84,0,8.76-0.68,8.76-1.52c0-0.84-3.92-1.53-8.76-1.53c-4.84,0-8.76,0.68-8.76,1.53
				C385.22,53.32,389.14,54.01,393.98,54.01z"/>
		</g>
		<g>
			<path class="st2" d="M393.98,58.42c4.84,0,8.76-0.51,8.76-1.13c0-0.63-3.92-1.13-8.76-1.13c-4.84,0-8.76,0.51-8.76,1.13
				C385.22,57.91,389.14,58.42,393.98,58.42z"/>
		</g>
		<g>
			<path class="st2" d="M393.98,61.93c4.84,0,8.76-0.39,8.76-0.88s-3.92-0.88-8.76-0.88c-4.84,0-8.76,0.39-8.76,0.88
				S389.14,61.93,393.98,61.93z"/>
		</g>
		<g>
			<path class="st2" d="M402.74,64.34c0-0.43-3.92-0.77-8.76-0.77c-4.84,0-8.76,0.35-8.76,0.77s3.92,0.77,8.76,0.77
				C398.82,65.12,402.74,64.77,402.74,64.34z"/>
		</g>
		<g>
			<path class="st2" d="M394.03,68.81c4.86,0,8.8-0.44,8.8-0.97s-3.94-0.97-8.8-0.97c-4.86,0-8.8,0.44-8.8,0.97
				S389.16,68.81,394.03,68.81z"/>
		</g>
		<g>
			<path class="st2" d="M393.96,70.92c-4.9,0-8.88,0.62-8.88,1.39c0,0.77,3.97,1.39,8.88,1.39c4.9,0,8.88-0.62,8.88-1.39
				C402.83,71.54,398.86,70.92,393.96,70.92z"/>
		</g>
		<g>
			<path class="st2" d="M393.98,11.75c-4.84,0-8.76,1.06-8.76,2.37c0,1.31,3.92,2.37,8.76,2.37c4.84,0,8.76-1.06,8.76-2.37
				C402.74,12.82,398.82,11.75,393.98,11.75z"/>
		</g>
		<g>
			<path class="st2" d="M393.98,8.59c4.84,0,8.76-0.88,8.76-1.97c0-1.09-3.92-1.97-8.76-1.97c-4.84,0-8.76,0.88-8.76,1.97
				C385.22,7.7,389.14,8.59,393.98,8.59z"/>
		</g>
	</g>
	<g>
		<path class="st1" d="M393.81,571.5c-0.37,0-0.75-0.05-1.11-0.16c-0.43-0.13-35.39-11.45-36.88-11.93l0.16-0.49
			c0.36,0.12,36.45,11.79,36.87,11.93c0.56,0.17,1.17,0.19,1.65,0.05c0.36-0.11,36.44-11.7,36.81-11.81l0.16,0.49
			c-1.49,0.48-36.54,11.74-36.82,11.82C394.39,571.46,394.1,571.5,393.81,571.5z"/>
	</g>
	<g>
		<polygon class="st1" points="355.82,559.41 279.74,535.06 279.91,534.57 355.99,558.91 		"/>
	</g>
	<g>
		<polygon class="st1" points="394,77.42 393.95,77.41 213.82,38.29 213.93,37.78 394,76.89 573.96,37.47 574.07,37.98 		"/>
	</g>
	<g>
		<rect x="393.56" y="77.15" class="st1" width="0.52" height="494.08"/>
	</g>
	<g>
		<path class="st1" d="M410.46,566.02h-0.52c0.02-2.28,1.65-228.1,1.65-231.34c0-3.45,1.37-6.19,3.58-7.14
			c0.94-0.41,1.86-0.35,2.6,0.13c1.12,0.74,1.73,2.38,1.73,4.61c0,3.77-1.4,229.17-1.41,231.45h-0.52
			c0.01-2.28,1.41-227.68,1.41-231.45c0-2.02-0.55-3.54-1.5-4.17c-0.59-0.39-1.33-0.42-2.1-0.09c-1.99,0.85-3.28,3.47-3.28,6.66
			C412.1,337.93,410.47,563.74,410.46,566.02z"/>
	</g>
	<g>
		<path class="st3" d="M415.8,336.95"/>
	</g>
	<g>
		<path d="M418.6,98.79c-1.52-0.21-3.75,2.08-3.96,2.31c0,0-0.01,0.01-0.02,0.01c-0.01,0-0.01,0-0.02-0.01
			c-0.22-0.15-2.57-1.65-4.06-0.91c-0.02,0.01-0.03,0.01-0.04-0.01c-0.01-0.02,0-0.04,0.01-0.06c1.16-1.24,2.43-2.09,4-2.36
			c1.57-0.27,2.88,0.13,4.11,0.95c0.01,0.01,0.02,0.03,0.01,0.05C418.63,98.79,418.62,98.8,418.6,98.79z"/>
	</g>
	<g>
		<path d="M416.86,103.69c-0.01-0.01-0.01-0.02-0.01-0.03c0-0.02,0-0.03,0.01-0.04c2.26-3.85,3.08-3.63,3.21-3.55
			c0.01,0.01,0.02,0.02,0.04,0.03c1.49,1.81,2.46,4.5,2.56,7.65c0.08,2.58-0.43,5.07-1.36,7.15c-0.01,0.02-0.03,0.03-0.04,0.03
			c-0.01-0.01-0.02-0.03-0.01-0.06C421.76,112.09,418.51,106.13,416.86,103.69z"/>
	</g>
	<g>
		<path d="M409.15,102.01c0.01-0.02,0.02-0.03,0.03-0.04c0.13-0.12,0.92-0.63,3.41,2.4c0.01,0.01,0.01,0.02,0.01,0.04
			c0,0.01,0,0.02-0.01,0.03c-1.48,2.99-4.29,10-3.61,12.57c0.01,0.02,0.01,0.05-0.01,0.06c-0.01,0.01-0.03,0.01-0.04-0.01
			c-1.06-1.73-1.73-4.01-1.82-6.59C407.01,107.31,407.8,104.31,409.15,102.01z"/>
	</g>
	<g>
		<path d="M414.79,106.88c0.01-0.01,0.02-0.02,0.02-0.02c0.01,0,0.02,0.01,0.03,0.01c2.41,2.17,6.6,7.86,5.45,9.88
			c-1.31,1.98-3.07,3.35-5.03,3.7c-1.96,0.34-3.79-0.4-5.21-1.91C408.78,116.94,412.55,109.86,414.79,106.88z"/>
	</g>
	<g>
		<path class="st4" d="M418.27,306.72l-3.3-1.11C414.96,305.62,417.56,304.12,418.27,306.72z"/>
	</g>
	<g>
		<path class="st4" d="M415.38,315.04l-2.37-0.28c0,0,0.22,1.71,2.42,1.43C417.64,315.92,415.38,315.04,415.38,315.04z"/>
	</g>
	<g>
		<path class="st1" d="M416.76,315.65c-0.14,0-0.29-0.02-0.42-0.05c-1.64-0.36-2.53-2.7-1.98-5.21l0,0
			c0.34-1.56,1.15-2.88,2.17-3.54c0.59-0.37,1.21-0.5,1.79-0.38c1.64,0.36,2.53,2.69,1.99,5.21
			C419.81,313.98,418.28,315.65,416.76,315.65z M417.89,306.94c-0.35,0-0.72,0.12-1.07,0.35c-0.91,0.59-1.64,1.78-1.95,3.21l0,0
			c-0.49,2.24,0.22,4.3,1.58,4.6c1.38,0.29,2.87-1.29,3.35-3.52c0.48-2.24-0.23-4.3-1.58-4.59
			C418.11,306.95,418,306.94,417.89,306.94z"/>
	</g>
	<g>
		<path class="st5" d="M414.85,316.42c-0.16,0-0.32-0.02-0.47-0.05c-2.08-0.46-3.22-3.39-2.54-6.53c0.63-2.87,2.56-4.95,4.48-4.95
			c0.18,0,0.37,0.02,0.55,0.06c0.9,0.2,1.67,0.87,2.16,1.9l-0.47,0.22c-0.42-0.88-1.06-1.45-1.8-1.61c-1.79-0.4-3.78,1.62-4.41,4.49
			s0.34,5.52,2.14,5.92c0.64,0.15,1.49-0.12,2.25-0.69l0.32,0.42C416.35,316.13,415.55,316.42,414.85,316.42z"/>
	</g>
	<g>
		<path class="st1" d="M501.04,537.48l-0.15-0.49c0.67-0.22,67.35-21.4,68.39-21.86c0.48-0.26,0.78-0.92,0.83-1.43
			c0.06-1.04,1.03-138.37,1.03-139.58h0.52c0,1.3-0.97,139.08-1.03,139.64c-0.06,0.63-0.44,1.47-1.11,1.83
			C568.91,515.93,507.99,535.28,501.04,537.48z"/>
	</g>
</g>
</svg>
